#!OML:ASF E:\emotionWalksFemale\Project 1\Capture day 1\Session 1\Female1.ASF
:FULLY-SPECIFIED
:DEGREES
1164
root 9.95728 15.3132 -5.3233 -184.419 0.76766 -176.8
lowerback 6.34533 1.16335 3.39084
upperback -4.11865 2.03643 0.64677
thorax -7.80654 0.875289 -1.49055
lowerneck -6.39981 -0.402862 -5.52416
upperneck 28.1137 -3.52226 4.77501
head 10.1266 -2.6838 2.10138
rclavicle -2.13694e-015 -9.64106e-015
rhumerus -46.2672 8.36135 -89.6711
rradius 38.3992
rwrist 5.19136
rhand 162.558 -71.4568
rfingers 7.12502
rthumb -171.191 -41.6606
lclavicle -2.13694e-015 -9.64106e-015
lhumerus -46.3862 2.30436 82.3351
lradius 38.9181
lwrist -10.3017
lhand -3.58784 -36.616
lfingers 7.12502
lthumb 22.1497 -7.86489
rfemur 5.00126 12.7193 37.5923
rtibia 18.3586
rfoot -18.0128 -24.6705
rtoes -0.327397
lfemur -25.0595 -1.53146 -17.3214
ltibia 60.6857
lfoot -16.0943 8.84516
ltoes -28.0651
1165
root 9.96326 15.3142 -5.35905 -184.404 0.717199 -176.757
lowerback 6.35225 1.10042 3.41278
upperback -4.13851 1.96138 0.696696
thorax -7.83694 0.83919 -1.44144
lowerneck -5.73103 -0.210638 -5.68334
upperneck 27.6748 -3.30049 5.04969
head 9.82766 -2.5754 2.25413
rclavicle 1.66482e-014 2.88238e-015
rhumerus -46.3986 8.37729 -89.6811
rradius 38.452
rwrist 5.16079
rhand 162.373 -71.5323
rfingers 7.12502
rthumb -171.37 -41.7287
lclavicle 1.66482e-014 2.88238e-015
lhumerus -46.4907 2.66346 82.1144
lradius 38.6372
lwrist -10.7304
lhand -3.98072 -37.1596
lfingers 7.12502
lthumb 21.7725 -8.36417
rfemur 5.30787 12.3169 37.5924
rtibia 17.9404
rfoot -17.8108 -24.6135
rtoes -1.09783
lfemur -25.238 -1.8221 -17.2954
ltibia 59.9414
lfoot -15.9074 9.04019
ltoes -27.2506
1166
root 9.97013 15.3118 -5.38909 -184.361 0.697038 -176.619
lowerback 6.44473 1.0454 3.61116
upperback -4.17517 1.91635 0.711094
thorax -7.92818 0.805656 -1.53476
lowerneck -5.96398 -0.155471 -5.64923
upperneck 27.8462 -3.25314 5.13276
head 9.93219 -2.54244 2.28107
rclavicle 9.0944e-015 1.02374e-014
rhumerus -46.4703 8.3494 -89.771
rradius 38.3428
rwrist 5.2583
rhand 162.197 -71.5871
rfingers 7.12502
rthumb -171.54 -41.7766
lclavicle 9.0944e-015 1.02374e-014
lhumerus -46.5188 3.07194 81.7897
lradius 38.486
lwrist -11.0784
lhand -3.78324 -37.0763
lfingers 7.12502
lthumb 21.9621 -8.30306
rfemur 5.57759 12.1214 37.7455
rtibia 17.5241
rfoot -17.6524 -24.7201
rtoes -2.69292
lfemur -25.4958 -2.081 -17.1514
ltibia 59.2222
lfoot -15.5132 9.37544
ltoes -28.1329
1167
root 9.97748 15.3124 -5.42316 -184.231 0.80007 -176.566
lowerback 6.3929 1.07148 3.81384
upperback -4.17424 1.96569 0.66371
thorax -7.8874 0.81834 -1.70297
lowerneck -6.21795 -0.18377 -5.44288
upperneck 27.965 -3.26938 4.9731
head 10.0213 -2.53878 2.1858
rclavicle 6.70898e-016 -5.46658e-015
rhumerus -46.3566 8.2846 -89.8432
rradius 38.1324
rwrist 4.98897
rhand 162.008 -71.4912
rfingers 7.12502
rthumb -171.722 -41.6734
lclavicle 6.70898e-016 -5.46658e-015
lhumerus -46.5373 3.11916 81.661
lradius 38.5685
lwrist -11.1205
lhand -3.52948 -36.5406
lfingers 7.12502
lthumb 22.2057 -7.79617
rfemur 5.77521 12.154 37.8061
rtibia 17.137
rfoot -17.4938 -24.8139
rtoes -4.51039
lfemur -25.7873 -2.34132 -17.0684
ltibia 58.4842
lfoot -15.3052 9.54059
ltoes -25.992
1168
root 9.98302 15.3147 -5.46386 -184.148 0.991097 -176.552
lowerback 6.16791 1.21392 4.22691
upperback -4.03718 2.15739 0.462697
thorax -7.5777 0.889599 -2.16004
lowerneck -6.29972 -0.276763 -5.31132
upperneck 27.8924 -3.40722 5.02317
head 10.0184 -2.57137 2.16661
rclavicle 1.963e-014 -1.98785e-015
rhumerus -46.0305 7.72324 -89.8089
rradius 37.9377
rwrist 4.80087
rhand 161.787 -71.5398
rfingers 7.12502
rthumb -171.935 -41.7136
lclavicle 1.963e-014 -1.98785e-015
lhumerus -46.3715 2.67214 81.5977
lradius 38.6108
lwrist -11.0317
lhand -3.4932 -36.3445
lfingers 7.12502
lthumb 22.2406 -7.6042
rfemur 6.04847 12.1128 37.8044
rtibia 16.7671
rfoot -17.3312 -24.7075
rtoes -5.26327
lfemur -25.9081 -2.52744 -17.0283
ltibia 57.7154
lfoot -15.6342 9.37618
ltoes -23.5172
1169
root 9.98727 15.3202 -5.50496 -184.126 1.17634 -176.518
lowerback 6.29141 1.18609 4.05858
upperback -4.09784 2.13348 0.662596
thorax -7.7293 0.891013 -1.8579
lowerneck -6.23874 -0.140776 -5.49215
upperneck 27.9859 -3.20347 4.98784
head 10.0295 -2.51125 2.20662
rclavicle -4.42296e-015 1.20265e-014
rhumerus -46.2183 7.92492 -89.6412
rradius 37.9015
rwrist 5.00135
rhand 161.915 -71.7594
rfingers 7.12502
rthumb -171.811 -41.9381
lclavicle -4.42296e-015 1.20265e-014
lhumerus -46.6009 3.00658 81.6208
lradius 38.5142
lwrist -10.9494
lhand -3.41151 -36.6028
lfingers 7.12502
lthumb 22.319 -7.87181
rfemur 6.37223 12.0433 37.8365
rtibia 16.4352
rfoot -17.1926 -24.5878
rtoes -5.93082
lfemur -25.986 -2.64423 -16.9837
ltibia 56.9442
lfoot -16.1286 9.15837
ltoes -23.6328
1170
root 9.9918 15.3243 -5.54003 -184.051 1.30315 -176.517
lowerback 6.26892 1.18005 4.12629
upperback -4.10643 2.13378 0.678598
thorax -7.7242 0.888729 -1.8785
lowerneck -6.19803 -0.0807246 -5.41168
upperneck 27.9621 -3.09121 4.84718
head 10.003 -2.46606 2.15465
rclavicle -1.18028e-014 -9.44227e-015
rhumerus -46.2259 7.9878 -89.6328
rradius 37.7962
rwrist 5.09295
rhand 162.348 -71.7198
rfingers 7.12502
rthumb -171.394 -41.9152
lclavicle -1.18028e-014 -9.44227e-015
lhumerus -46.5295 3.12729 81.5086
lradius 38.1971
lwrist -10.8471
lhand -3.58522 -36.8075
lfingers 7.12502
lthumb 22.1522 -8.05666
rfemur 6.60647 11.9872 37.8262
rtibia 16.1156
rfoot -17.1206 -24.4677
rtoes -6.55579
lfemur -26.2227 -2.8238 -16.9683
ltibia 56.2104
lfoot -16.1556 9.4811
ltoes -23.6169
1171
root 9.9979 15.3229 -5.57002 -183.942 1.37701 -176.433
lowerback 6.12957 1.21289 4.40829
upperback -4.04606 2.18974 0.62748
thorax -7.56433 0.903865 -2.09139
lowerneck -6.02274 -0.110943 -5.32992
upperneck 27.7127 -3.10323 4.8008
head 9.87745 -2.45742 2.1245
rclavicle -4.89507e-015 -3.8763e-015
rhumerus -46.0436 7.84428 -89.5958
rradius 37.6752
rwrist 5.13116
rhand 162.396 -71.6113
rfingers 7.12502
rthumb -171.348 -41.8086
lclavicle -4.89507e-015 -3.8763e-015
lhumerus -46.3665 3.26827 81.3083
lradius 37.9927
lwrist -11.0836
lhand -3.75048 -36.7669
lfingers 7.12502
lthumb 21.9936 -7.9973
rfemur 6.79173 11.8136 37.8863
rtibia 15.7463
rfoot -17.0074 -24.2879
rtoes -6.89205
lfemur -26.5275 -3.04717 -16.839
ltibia 55.5341
lfoot -16.0608 9.90076
ltoes -23.5464
1172
root 10.0037 15.3204 -5.60138 -183.912 1.42639 -176.323
lowerback 6.21047 1.22442 4.61856
upperback -4.01637 2.22854 0.636835
thorax -7.57112 0.911964 -2.20586
lowerneck -5.90853 -0.146024 -5.47488
upperneck 27.465 -3.1307 4.95373
head 9.77103 -2.45597 2.20236
rclavicle 3.05756e-014 1.05356e-014
rhumerus -46.0172 7.65745 -89.4502
rradius 37.6625
rwrist 5.44511
rhand 162.084 -71.6719
rfingers 7.12502
rthumb -171.649 -41.857
lclavicle 3.05756e-014 1.05356e-014
lhumerus -46.4706 3.37682 81.1969
lradius 38.1484
lwrist -11.236
lhand -3.60754 -36.541
lfingers 7.12502
lthumb 22.1308 -7.78763
rfemur 7.05571 11.6014 37.9989
rtibia 15.4093
rfoot -16.8587 -24.1173
rtoes -7.34044
lfemur -26.7261 -3.20122 -16.7003
ltibia 54.8675
lfoot -16.1914 9.95772
ltoes -22.7449
1173
root 10.0079 15.3218 -5.63899 -183.938 1.57731 -176.22
lowerback 6.40716 1.2038 4.68025
upperback -4.06029 2.2311 0.734595
thorax -7.73524 0.909323 -2.14506
lowerneck -6.03111 -0.101575 -5.59052
upperneck 27.5196 -3.06637 5.04394
head 9.81271 -2.42701 2.26028
rclavicle 1.66482e-014 -4.96962e-015
rhumerus -46.1864 7.70888 -89.3584
rradius 37.6982
rwrist 5.50089
rhand 162.088 -71.6345
rfingers 7.12502
rthumb -171.645 -41.8198
lclavicle 1.66482e-014 -4.96962e-015
lhumerus -46.7428 3.64649 81.0551
lradius 38.1713
lwrist -11.2281
lhand -3.41081 -36.3286
lfingers 7.12502
lthumb 22.3197 -7.59772
rfemur 7.41335 11.4769 38.1254
rtibia 15.1059
rfoot -16.7186 -23.9335
rtoes -7.33337
lfemur -26.8212 -3.24919 -16.5792
ltibia 54.1678
lfoot -16.2473 10.0496
ltoes -22.1629
1174
root 10.0087 15.3237 -5.67734 -183.933 1.8082 -176.188
lowerback 6.59333 1.19652 4.64251
upperback -4.15812 2.24853 0.852694
thorax -7.95461 0.919176 -2.00962
lowerneck -6.19138 -0.0187731 -5.54584
upperneck 27.7644 -2.95278 4.91475
head 9.92324 -2.39469 2.21714
rclavicle 1.19271e-015 7.70291e-015
rhumerus -46.4214 7.8276 -89.2679
rradius 37.6915
rwrist 5.40556
rhand 162.25 -71.5675
rfingers 7.12502
rthumb -171.488 -41.7591
lclavicle 1.19271e-015 7.70291e-015
lhumerus -47.0079 4.25056 80.7916
lradius 37.9442
lwrist -11.3669
lhand -3.1234 -36.3715
lfingers 7.12502
lthumb 22.5955 -7.67395
rfemur 7.76128 11.3642 38.138
rtibia 14.7526
rfoot -16.6021 -23.6681
rtoes -6.89817
lfemur -26.8854 -3.34739 -16.5239
ltibia 53.4085
lfoot -16.1743 10.1925
ltoes -21.7678
1175
root 10.0093 15.3261 -5.71007 -183.892 1.98062 -176.277
lowerback 6.81104 1.2262 4.60561
upperback -4.23828 2.30229 0.850024
thorax -8.1662 0.941235 -2.00719
lowerneck -6.04437 -0.00646329 -5.41805
upperneck 27.6778 -2.91443 4.74671
head 9.85767 -2.38315 2.13988
rclavicle -2.12078e-014 3.52843e-015
rhumerus -46.5092 7.71758 -89.1421
rradius 37.576
rwrist 5.55342
rhand 162.203 -71.5335
rfingers 7.12502
rthumb -171.534 -41.7232
lclavicle -2.12078e-014 3.52843e-015
lhumerus -47.3279 4.46702 80.6411
lradius 38.1319
lwrist -11.2714
lhand -2.69707 -36.2819
lfingers 7.12502
lthumb 23.0047 -7.63469
rfemur 8.00468 11.2368 38.0045
rtibia 14.4428
rfoot -16.6201 -23.4049
rtoes -6.5305
lfemur -26.9933 -3.52197 -16.6026
ltibia 52.5811
lfoot -16.1341 10.3504
ltoes -21.3171
1176
root 10.0125 15.3292 -5.74313 -183.863 2.05592 -176.289
lowerback 6.90334 1.26134 4.72183
upperback -4.2526 2.36224 0.79603
thorax -8.2258 0.959788 -2.14035
lowerneck -5.65407 -0.0341615 -5.40229
upperneck 27.3619 -2.95599 4.77509
head 9.67091 -2.39575 2.14494
rclavicle -1.09332e-015 -1.25234e-014
rhumerus -46.487 7.51022 -89.0611
rradius 37.4208
rwrist 5.65047
rhand 162.093 -71.5139
rfingers 7.12502
rthumb -171.64 -41.6994
lclavicle -1.09332e-015 -1.25234e-014
lhumerus -47.5206 4.42939 80.5127
lradius 38.3367
lwrist -11.1655
lhand -2.44521 -36.1729
lfingers 7.12502
lthumb 23.2463 -7.55599
rfemur 8.24367 11.0905 37.9855
rtibia 14.1654
rfoot -16.7559 -23.2421
rtoes -6.09169
lfemur -27.1159 -3.69052 -16.6174
ltibia 51.725
lfoot -16.0872 10.6134
ltoes -21.8994
1177
root 10.0135 15.3312 -5.77891 -183.833 2.15957 -176.273
lowerback 6.87707 1.28348 4.83874
upperback -4.22767 2.40228 0.80521
thorax -8.17733 0.974792 -2.19998
lowerneck -5.81012 -0.0490265 -5.29289
upperneck 27.5165 -2.93927 4.53354
head 9.75205 -2.40377 2.0417
rclavicle -1.98971e-014 -1.7344e-014
rhumerus -46.4022 7.35666 -88.9174
rradius 37.2832
rwrist 5.70431
rhand 162.048 -71.594
rfingers 7.12502
rthumb -171.683 -41.7777
lclavicle -1.98971e-014 -1.7344e-014
lhumerus -47.494 4.71977 80.3198
lradius 38.1703
lwrist -11.2126
lhand -2.53852 -36.4758
lfingers 7.12502
lthumb 23.1568 -7.84763
rfemur 8.53696 10.8856 37.977
rtibia 13.7924
rfoot -16.7825 -23.0351
rtoes -5.83565
lfemur -27.1676 -3.89061 -16.5867
ltibia 50.8573
lfoot -15.9887 10.6162
ltoes -20.0591
